RedHatDisplay-BlackItalic.ufo
<glyph name="ampersand" format="2">
  <advance width="682"/>
  <unicode hex="0026"/>
  <outline>
    <contour>
      <point x="631" y="97" type="line"/>
      <point x="608" y="114"/>
      <point x="584" y="134"/>
      <point x="559" y="157" type="curve"/>
      <point x="598" y="205"/>
      <point x="635" y="268"/>
      <point x="670" y="347" type="curve"/>
      <point x="540" y="381" type="line"/>
      <point x="516" y="327"/>
      <point x="492" y="282"/>
      <point x="467" y="247" type="curve"/>
      <point x="434" y="283"/>
      <point x="402" y="320"/>
      <point x="378" y="354" type="curve"/>
      <point x="433" y="381" type="line" smooth="yes"/>
      <point x="515" y="422"/>
      <point x="560" y="484"/>
      <point x="560" y="557" type="curve" smooth="yes"/>
      <point x="560" y="646"/>
      <point x="484" y="709"/>
      <point x="375" y="709" type="curve" smooth="yes"/>
      <point x="244" y="709"/>
      <point x="153" y="624"/>
      <point x="153" y="502" type="curve" smooth="yes"/>
      <point x="153" y="464"/>
      <point x="161" y="428"/>
      <point x="181" y="388" type="curve"/>
      <point x="68" y="336"/>
      <point x="14" y="268"/>
      <point x="14" y="172" type="curve" smooth="yes"/>
      <point x="14" y="60"/>
      <point x="106" y="-10"/>
      <point x="251" y="-10" type="curve" smooth="yes"/>
      <point x="323" y="-10"/>
      <point x="390" y="10"/>
      <point x="450" y="48" type="curve"/>
      <point x="475" y="25"/>
      <point x="500" y="3"/>
      <point x="524" y="-16" type="curve"/>
    </contour>
    <contour>
      <point x="297" y="525" type="curve" smooth="yes"/>
      <point x="297" y="564"/>
      <point x="322" y="591"/>
      <point x="360" y="591" type="curve" smooth="yes"/>
      <point x="394" y="591"/>
      <point x="416" y="571"/>
      <point x="416" y="540" type="curve" smooth="yes"/>
      <point x="416" y="512"/>
      <point x="396" y="485"/>
      <point x="361" y="467" type="curve" smooth="yes"/>
      <point x="319" y="447" type="line"/>
      <point x="304" y="476"/>
      <point x="297" y="501"/>
    </contour>
    <contour>
      <point x="163" y="192" type="curve" smooth="yes"/>
      <point x="163" y="233"/>
      <point x="187" y="263"/>
      <point x="240" y="291" type="curve"/>
      <point x="273" y="241"/>
      <point x="315" y="188"/>
      <point x="361" y="137" type="curve"/>
      <point x="331" y="122"/>
      <point x="302" y="115"/>
      <point x="270" y="115" type="curve" smooth="yes"/>
      <point x="205" y="115"/>
      <point x="163" y="145"/>
    </contour>
  </outline>
</glyph>
<glyph name="parenright" format="2">
  <advance width="413"/>
  <unicode hex="0029"/>
  <outline>
    <contour>
      <point x="206" y="713" type="curve"/>
      <point x="99" y="622" type="line"/>
      <point x="185" y="550"/>
      <point x="230" y="454"/>
      <point x="230" y="341" type="curve" smooth="yes"/>
      <point x="230" y="147"/>
      <point x="122" y="-24"/>
      <point x="-57" y="-113" type="curve"/>
      <point x="10" y="-219" type="line"/>
      <point x="235" y="-115"/>
      <point x="378" y="109"/>
      <point x="378" y="357" type="curve" smooth="yes"/>
      <point x="378" y="504"/>
      <point x="318" y="629"/>
    </contour>
  </outline>
</glyph>
<glyph name="period" format="2">
  <advance width="250"/>
  <unicode hex="002E"/>
  <outline>
    <contour>
      <point x="76" y="-11" type="curve" smooth="yes"/>
      <point x="130" y="-11"/>
      <point x="178" y="38"/>
      <point x="178" y="93" type="curve" smooth="yes"/>
      <point x="178" y="139"/>
      <point x="144" y="174"/>
      <point x="98" y="174" type="curve" smooth="yes"/>
      <point x="42" y="174"/>
      <point x="-6" y="126"/>
      <point x="-6" y="70" type="curve" smooth="yes"/>
      <point x="-6" y="24"/>
      <point x="29" y="-11"/>
    </contour>
  </outline>
</glyph>
<glyph name="zero" format="2">
  <advance width="680"/>
  <unicode hex="0030"/>
  <outline>
    <contour>
      <point x="310" y="-10" type="curve" smooth="yes"/>
      <point x="514" y="-10"/>
      <point x="678" y="186"/>
      <point x="678" y="430" type="curve" smooth="yes"/>
      <point x="678" y="602"/>
      <point x="572" y="711"/>
      <point x="407" y="711" type="curve" smooth="yes"/>
      <point x="203" y="711"/>
      <point x="39" y="515"/>
      <point x="39" y="271" type="curve" smooth="yes"/>
      <point x="39" y="99"/>
      <point x="145" y="-10"/>
    </contour>
    <contour>
      <point x="325" y="130" type="curve" smooth="yes"/>
      <point x="244" y="130"/>
      <point x="195" y="187"/>
      <point x="195" y="282" type="curve" smooth="yes"/>
      <point x="195" y="441"/>
      <point x="284" y="571"/>
      <point x="392" y="571" type="curve" smooth="yes"/>
      <point x="473" y="571"/>
      <point x="522" y="514"/>
      <point x="522" y="419" type="curve" smooth="yes"/>
      <point x="522" y="260"/>
      <point x="433" y="130"/>
    </contour>
  </outline>
</glyph>
<glyph name="E" format="2">
  <advance width="646"/>
  <unicode hex="0045"/>
  <anchor x="417" y="700" name="top"/>
  <anchor x="546" y="0" name="bottom"/>
  <outline>
    <contour>
      <point x="1" y="0" type="line"/>
      <point x="546" y="0" type="line"/>
      <point x="578" y="149" type="line"/>
      <point x="201" y="149" type="line"/>
      <point x="229" y="281" type="line"/>
      <point x="475" y="281" type="line"/>
      <point x="505" y="425" type="line"/>
      <point x="259" y="425" type="line"/>
      <point x="286" y="551" type="line"/>
      <point x="659" y="551" type="line"/>
      <point x="691" y="700" type="line"/>
      <point x="150" y="700" type="line"/>
    </contour>
  </outline>
</glyph>
<glyph name="I" format="2">
  <advance width="282"/>
  <unicode hex="0049"/>
  <anchor x="234" y="700" name="top"/>
  <anchor x="169" y="0" name="bottom"/>
  <outline>
    <contour>
      <point x="1" y="0" type="line"/>
      <point x="169" y="0" type="line"/>
      <point x="318" y="700" type="line"/>
      <point x="150" y="700" type="line"/>
    </contour>
  </outline>
</glyph>
<glyph name="J" format="2">
  <advance width="645"/>
  <unicode hex="004A"/>
  <anchor x="609" y="700" name="top"/>
  <outline>
    <contour>
      <point x="289" y="-9" type="curve" smooth="yes"/>
      <point x="441" y="-9"/>
      <point x="560" y="90"/>
      <point x="594" y="245" type="curve" smooth="yes"/>
      <point x="692" y="700" type="line"/>
      <point x="521" y="700" type="line"/>
      <point x="432" y="276" type="line" smooth="yes"/>
      <point x="415" y="198"/>
      <point x="357" y="146"/>
      <point x="285" y="146" type="curve" smooth="yes"/>
      <point x="218" y="146"/>
      <point x="182" y="187"/>
      <point x="173" y="271" type="curve"/>
      <point x="15" y="217" type="line"/>
      <point x="34" y="72"/>
      <point x="133" y="-9"/>
    </contour>
  </outline>
</glyph>
<glyph name="L" format="2">
  <advance width="626"/>
  <unicode hex="004C"/>
  <anchor x="233" y="700" name="top"/>
  <anchor x="289" y="0" name="bottom"/>
  <outline>
    <contour>
      <point x="1" y="0" type="line"/>
      <point x="531" y="0" type="line"/>
      <point x="563" y="152" type="line"/>
      <point x="201" y="152" type="line"/>
      <point x="318" y="700" type="line"/>
      <point x="150" y="700" type="line"/>
    </contour>
  </outline>
</glyph>
<glyph name="M" format="2">
  <advance width="878"/>
  <unicode hex="004D"/>
  <outline>
    <contour>
      <point x="1" y="0" type="line"/>
      <point x="160" y="0" type="line"/>
      <point x="261" y="479" type="line"/>
      <point x="397" y="50" type="line"/>
      <point x="711" y="476" type="line"/>
      <point x="610" y="0" type="line"/>
      <point x="765" y="0" type="line"/>
      <point x="914" y="700" type="line"/>
      <point x="697" y="700" type="line"/>
      <point x="457" y="371" type="line"/>
      <point x="358" y="700" type="line"/>
      <point x="150" y="700" type="line"/>
    </contour>
  </outline>
</glyph>
<glyph name="N" format="2">
  <advance width="743"/>
  <unicode hex="004E"/>
  <anchor x="464" y="700" name="top"/>
  <anchor x="315" y="0" name="bottom"/>
  <outline>
    <contour>
      <point x="1" y="0" type="line"/>
      <point x="160" y="0" type="line"/>
      <point x="253" y="437" type="line"/>
      <point x="481" y="0" type="line"/>
      <point x="630" y="0" type="line"/>
      <point x="779" y="700" type="line"/>
      <point x="620" y="700" type="line"/>
      <point x="531" y="279" type="line"/>
      <point x="309" y="700" type="line"/>
      <point x="150" y="700" type="line"/>
    </contour>
  </outline>
</glyph>
<glyph name="Z" format="2">
  <advance width="609"/>
  <unicode hex="005A"/>
  <anchor x="380" y="700" name="top"/>
  <outline>
    <contour>
      <point x="-36" y="0" type="line"/>
      <point x="541" y="0" type="line"/>
      <point x="573" y="149" type="line"/>
      <point x="225" y="149" type="line"/>
      <point x="662" y="584" type="line"/>
      <point x="687" y="700" type="line"/>
      <point x="116" y="700" type="line"/>
      <point x="84" y="551" type="line"/>
      <point x="425" y="551" type="line"/>
      <point x="-11" y="116" type="line"/>
    </contour>
  </outline>
</glyph>
<glyph name="backslash" format="2">
  <advance width="520"/>
  <unicode hex="005C"/>
  <outline>
    <contour>
      <point x="489" y="-211" type="line"/>
      <point x="267" y="700" type="line"/>
      <point x="110" y="700" type="line"/>
      <point x="331" y="-211" type="line"/>
    </contour>
  </outline>
</glyph>
<glyph name="underscore" format="2">
  <advance width="489"/>
  <unicode hex="005F"/>
  <outline>
    <contour>
      <point x="-98" y="-191" type="line"/>
      <point x="393" y="-191" type="line"/>
      <point x="417" y="-80" type="line"/>
      <point x="-74" y="-80" type="line"/>
    </contour>
  </outline>
</glyph>
<glyph name="f" format="2">
  <advance width="444"/>
  <unicode hex="0066"/>
  <outline>
    <contour>
      <point x="75" y="0" type="line"/>
      <point x="234" y="0" type="line"/>
      <point x="318" y="394" type="line"/>
      <point x="454" y="394" type="line"/>
      <point x="482" y="529" type="line"/>
      <point x="347" y="529" type="line"/>
      <point x="354" y="561" type="line" smooth="yes"/>
      <point x="361" y="597"/>
      <point x="386" y="615"/>
      <point x="429" y="615" type="curve" smooth="yes"/>
      <point x="453" y="615"/>
      <point x="476" y="611"/>
      <point x="499" y="603" type="curve"/>
      <point x="527" y="737" type="line"/>
      <point x="503" y="747"/>
      <point x="457" y="754"/>
      <point x="421" y="754" type="curve" smooth="yes"/>
      <point x="301" y="754"/>
      <point x="222" y="691"/>
      <point x="197" y="576" type="curve" smooth="yes"/>
      <point x="187" y="529" type="line"/>
      <point x="74" y="529" type="line"/>
      <point x="46" y="394" type="line"/>
      <point x="158" y="394" type="line"/>
    </contour>
  </outline>
</glyph>
<glyph name="h" format="2">
  <advance width="599"/>
  <unicode hex="0068"/>
  <anchor x="218" y="700" name="top"/>
  <outline>
    <contour>
      <point x="-7" y="0" type="line"/>
      <point x="152" y="0" type="line"/>
      <point x="229" y="361" type="line"/>
      <point x="256" y="387"/>
      <point x="287" y="400"/>
      <point x="324" y="400" type="curve" smooth="yes"/>
      <point x="383" y="400"/>
      <point x="415" y="360"/>
      <point x="403" y="300" type="curve" smooth="yes"/>
      <point x="339" y="0" type="line"/>
      <point x="498" y="0" type="line"/>
      <point x="565" y="315" type="line" smooth="yes"/>
      <point x="592" y="443"/>
      <point x="521" y="537"/>
      <point x="395" y="537" type="curve" smooth="yes"/>
      <point x="346" y="537"/>
      <point x="299" y="523"/>
      <point x="257" y="496" type="curve"/>
      <point x="308" y="735" type="line"/>
      <point x="142" y="700" type="line"/>
    </contour>
  </outline>
</glyph>
<glyph name="i" format="2">
  <advance width="257"/>
  <unicode hex="0069"/>
  <anchor x="152" y="0" name="bottom"/>
  <outline>
    <contour>
      <point x="-7" y="0" type="line"/>
      <point x="152" y="0" type="line"/>
      <point x="264" y="529" type="line"/>
      <point x="105" y="529" type="line"/>
    </contour>
    <contour>
      <point x="204" y="578" type="curve" smooth="yes"/>
      <point x="256" y="578"/>
      <point x="302" y="624"/>
      <point x="302" y="678" type="curve" smooth="yes"/>
      <point x="302" y="722"/>
      <point x="268" y="756"/>
      <point x="224" y="756" type="curve" smooth="yes"/>
      <point x="172" y="756"/>
      <point x="126" y="710"/>
      <point x="126" y="656" type="curve" smooth="yes"/>
      <point x="126" y="612"/>
      <point x="160" y="578"/>
    </contour>
  </outline>
</glyph>
<glyph name="k" format="2">
  <advance width="585"/>
  <unicode hex="006B"/>
  <anchor x="241" y="0" name="bottom"/>
  <outline>
    <contour>
      <point x="-7" y="0" type="line"/>
      <point x="152" y="0" type="line"/>
      <point x="200" y="227" type="line"/>
      <point x="361" y="0" type="line"/>
      <point x="552" y="0" type="line"/>
      <point x="353" y="263" type="line"/>
      <point x="649" y="529" type="line"/>
      <point x="456" y="529" type="line"/>
      <point x="216" y="303" type="line"/>
      <point x="308" y="735" type="line"/>
      <point x="142" y="700" type="line"/>
    </contour>
  </outline>
</glyph>
<glyph name="m" format="2">
  <advance width="906"/>
  <unicode hex="006D"/>
  <outline>
    <contour>
      <point x="-7" y="0" type="line"/>
      <point x="152" y="0" type="line"/>
      <point x="228" y="361" type="line"/>
      <point x="255" y="387"/>
      <point x="283" y="400"/>
      <point x="314" y="400" type="curve" smooth="yes"/>
      <point x="368" y="400"/>
      <point x="395" y="360"/>
      <point x="383" y="300" type="curve" smooth="yes"/>
      <point x="319" y="0" type="line"/>
      <point x="478" y="0" type="line"/>
      <point x="545" y="315" type="line" smooth="yes"/>
      <point x="548" y="329"/>
      <point x="550" y="343"/>
      <point x="551" y="356" type="curve"/>
      <point x="578" y="386"/>
      <point x="608" y="400"/>
      <point x="641" y="400" type="curve" smooth="yes"/>
      <point x="694" y="400"/>
      <point x="722" y="359"/>
      <point x="710" y="300" type="curve" smooth="yes"/>
      <point x="646" y="0" type="line"/>
      <point x="805" y="0" type="line"/>
      <point x="872" y="315" type="line" smooth="yes"/>
      <point x="899" y="442"/>
      <point x="831" y="537"/>
      <point x="712" y="537" type="curve" smooth="yes"/>
      <point x="644" y="537"/>
      <point x="581" y="509"/>
      <point x="530" y="457" type="curve"/>
      <point x="503" y="506"/>
      <point x="452" y="537"/>
      <point x="386" y="537" type="curve" smooth="yes"/>
      <point x="340" y="537"/>
      <point x="296" y="522"/>
      <point x="256" y="493" type="curve"/>
      <point x="264" y="529" type="line"/>
      <point x="105" y="529" type="line"/>
    </contour>
  </outline>
</glyph>
<glyph name="n" format="2">
  <advance width="599"/>
  <unicode hex="006E"/>
  <anchor x="356" y="529" name="top"/>
  <anchor x="244" y="0" name="bottom"/>
  <outline>
    <contour>
      <point x="-7" y="0" type="line"/>
      <point x="152" y="0" type="line"/>
      <point x="228" y="361" type="line"/>
      <point x="255" y="387"/>
      <point x="287" y="400"/>
      <point x="324" y="400" type="curve" smooth="yes"/>
      <point x="383" y="400"/>
      <point x="415" y="360"/>
      <point x="403" y="300" type="curve" smooth="yes"/>
      <point x="339" y="0" type="line"/>
      <point x="498" y="0" type="line"/>
      <point x="565" y="315" type="line" smooth="yes"/>
      <point x="592" y="443"/>
      <point x="521" y="537"/>
      <point x="395" y="537" type="curve" smooth="yes"/>
      <point x="345" y="537"/>
      <point x="299" y="523"/>
      <point x="257" y="496" type="curve"/>
      <point x="264" y="529" type="line"/>
      <point x="105" y="529" type="line"/>
    </contour>
  </outline>
</glyph>
<glyph name="q" format="2">
  <advance width="635"/>
  <unicode hex="0071"/>
  <outline>
    <contour>
      <point x="328" y="-204" type="line"/>
      <point x="487" y="-204" type="line"/>
      <point x="642" y="529" type="line"/>
      <point x="485" y="529" type="line"/>
      <point x="476" y="486" type="line"/>
      <point x="436" y="519"/>
      <point x="383" y="536"/>
      <point x="323" y="536" type="curve" smooth="yes"/>
      <point x="159" y="536"/>
      <point x="27" y="404"/>
      <point x="27" y="239" type="curve" smooth="yes"/>
      <point x="27" y="100"/>
      <point x="130" y="-7"/>
      <point x="263" y="-7" type="curve" smooth="yes"/>
      <point x="303" y="-7"/>
      <point x="340" y="3"/>
      <point x="375" y="21" type="curve"/>
    </contour>
    <contour>
      <point x="307" y="130" type="curve" smooth="yes"/>
      <point x="236" y="130"/>
      <point x="183" y="183"/>
      <point x="183" y="253" type="curve" smooth="yes"/>
      <point x="183" y="334"/>
      <point x="247" y="398"/>
      <point x="329" y="398" type="curve" smooth="yes"/>
      <point x="376" y="398"/>
      <point x="419" y="380"/>
      <point x="446" y="351" type="curve"/>
      <point x="406" y="164" type="line"/>
      <point x="377" y="141"/>
      <point x="345" y="130"/>
    </contour>
  </outline>
</glyph>
<glyph name="s" format="2">
  <advance width="503"/>
  <unicode hex="0073"/>
  <note>
Version created Fri Aug  3 17:49:29 2018
</note>
  <anchor x="266" y="529" name="top"/>
  <anchor x="223" y="0" name="bottom"/>
  <outline>
    <contour>
      <point x="239" y="-11" type="curve" smooth="yes"/>
      <point x="370" y="-11"/>
      <point x="469" y="68"/>
      <point x="469" y="173" type="curve" smooth="yes"/>
      <point x="469" y="245"/>
      <point x="418" y="298"/>
      <point x="330" y="317" type="curve" smooth="yes"/>
      <point x="229" y="339" type="line" smooth="yes"/>
      <point x="190" y="347"/>
      <point x="175" y="359"/>
      <point x="175" y="379" type="curve" smooth="yes"/>
      <point x="175" y="404"/>
      <point x="199" y="418"/>
      <point x="239" y="418" type="curve" smooth="yes"/>
      <point x="289" y="418"/>
      <point x="343" y="398"/>
      <point x="397" y="359" type="curve"/>
      <point x="484" y="457" type="line"/>
      <point x="422" y="508"/>
      <point x="338" y="537"/>
      <point x="250" y="537" type="curve" smooth="yes"/>
      <point x="116" y="537"/>
      <point x="34" y="470"/>
      <point x="34" y="360" type="curve" smooth="yes"/>
      <point x="34" y="284"/>
      <point x="82" y="231"/>
      <point x="169" y="212" type="curve" smooth="yes"/>
      <point x="270" y="190" type="line" smooth="yes"/>
      <point x="301" y="183"/>
      <point x="317" y="171"/>
      <point x="317" y="153" type="curve" smooth="yes"/>
      <point x="317" y="127"/>
      <point x="287" y="110"/>
      <point x="240" y="110" type="curve" smooth="yes"/>
      <point x="183" y="110"/>
      <point x="127" y="133"/>
      <point x="67" y="180" type="curve"/>
      <point x="-21" y="76" type="line"/>
      <point x="40" y="22"/>
      <point x="138" y="-11"/>
    </contour>
  </outline>
</glyph>
<glyph name="u" format="2">
  <advance width="599"/>
  <unicode hex="0075"/>
  <anchor x="346" y="529" name="top"/>
  <anchor x="494" y="0" name="bottom"/>
  <outline>
    <contour>
      <point x="204" y="-8" type="curve" smooth="yes"/>
      <point x="254" y="-8"/>
      <point x="300" y="6"/>
      <point x="342" y="33" type="curve"/>
      <point x="335" y="0" type="line"/>
      <point x="494" y="0" type="line"/>
      <point x="606" y="529" type="line"/>
      <point x="447" y="529" type="line"/>
      <point x="371" y="168" type="line"/>
      <point x="344" y="142"/>
      <point x="312" y="129"/>
      <point x="275" y="129" type="curve" smooth="yes"/>
      <point x="216" y="129"/>
      <point x="184" y="169"/>
      <point x="196" y="229" type="curve" smooth="yes"/>
      <point x="260" y="529" type="line"/>
      <point x="101" y="529" type="line"/>
      <point x="34" y="214" type="line" smooth="yes"/>
      <point x="7" y="86"/>
      <point x="78" y="-8"/>
    </contour>
  </outline>
</glyph>
<glyph name="w" format="2">
  <advance width="783"/>
  <unicode hex="0077"/>
  <anchor x="447" y="529" name="top"/>
  <outline>
    <contour>
      <point x="94" y="0" type="line"/>
      <point x="246" y="0" type="line"/>
      <point x="401" y="307" type="line"/>
      <point x="425" y="0" type="line"/>
      <point x="578" y="0" type="line"/>
      <point x="831" y="529" type="line"/>
      <point x="681" y="529" type="line"/>
      <point x="539" y="218" type="line"/>
      <point x="512" y="529" type="line"/>
      <point x="380" y="529" type="line"/>
      <point x="222" y="218" type="line"/>
      <point x="212" y="529" type="line"/>
      <point x="64" y="529" type="line"/>
    </contour>
  </outline>
</glyph>
<glyph name="x" format="2">
  <advance width="568"/>
  <unicode hex="0078"/>
  <outline>
    <contour>
      <point x="-61" y="0" type="line"/>
      <point x="123" y="0" type="line"/>
      <point x="264" y="151" type="line"/>
      <point x="340" y="0" type="line"/>
      <point x="517" y="0" type="line"/>
      <point x="377" y="268" type="line"/>
      <point x="626" y="529" type="line"/>
      <point x="442" y="529" type="line"/>
      <point x="311" y="387" type="line"/>
      <point x="239" y="529" type="line"/>
      <point x="61" y="529" type="line"/>
      <point x="198" y="270" type="line"/>
    </contour>
  </outline>
</glyph>
<glyph name="cent" format="2">
  <advance width="528"/>
  <unicode hex="00A2"/>
  <outline>
    <contour>
      <point x="192" y="-110" type="line"/>
      <point x="257" y="-110" type="line"/>
      <point x="278" y="-11" type="line"/>
      <point x="358" y="-11"/>
      <point x="431" y="19"/>
      <point x="490" y="75" type="curve"/>
      <point x="408" y="180" type="line"/>
      <point x="375" y="148"/>
      <point x="344" y="132"/>
      <point x="308" y="129" type="curve"/>
      <point x="363" y="389" type="line"/>
      <point x="389" y="379"/>
      <point x="411" y="360"/>
      <point x="430" y="331" type="curve"/>
      <point x="538" y="429" type="line"/>
      <point x="504" y="478"/>
      <point x="453" y="513"/>
      <point x="393" y="529" type="curve"/>
      <point x="413" y="625" type="line"/>
      <point x="348" y="625" type="line"/>
      <point x="330" y="539" type="line"/>
      <point x="152" y="539"/>
      <point x="24" y="410"/>
      <point x="24" y="240" type="curve" smooth="yes"/>
      <point x="24" y="117"/>
      <point x="102" y="23"/>
      <point x="215" y="-4" type="curve"/>
    </contour>
    <contour>
      <point x="245" y="140" type="line"/>
      <point x="206" y="158"/>
      <point x="182" y="197"/>
      <point x="182" y="249" type="curve" smooth="yes"/>
      <point x="182" y="326"/>
      <point x="233" y="389"/>
      <point x="300" y="397" type="curve"/>
    </contour>
  </outline>
</glyph>
<glyph name="uni00A4" format="2">
  <advance width="686"/>
  <unicode hex="00A4"/>
  <outline>
    <contour>
      <point x="95" y="39" type="line"/>
      <point x="192" y="137" type="line"/>
      <point x="235" y="110"/>
      <point x="287" y="95"/>
      <point x="343" y="95" type="curve" smooth="yes"/>
      <point x="399" y="95"/>
      <point x="450" y="110"/>
      <point x="493" y="137" type="curve"/>
      <point x="591" y="38" type="line"/>
      <point x="668" y="115" type="line"/>
      <point x="572" y="211" type="line"/>
      <point x="603" y="254"/>
      <point x="620" y="307"/>
      <point x="620" y="364" type="curve" smooth="yes"/>
      <point x="620" y="422"/>
      <point x="602" y="476"/>
      <point x="571" y="519" type="curve"/>
      <point x="667" y="616" type="line"/>
      <point x="592" y="691" type="line"/>
      <point x="493" y="592" type="line"/>
      <point x="450" y="619"/>
      <point x="399" y="634"/>
      <point x="343" y="634" type="curve" smooth="yes"/>
      <point x="288" y="634"/>
      <point x="237" y="619"/>
      <point x="194" y="593" type="curve"/>
      <point x="96" y="692" type="line"/>
      <point x="19" y="615" type="line"/>
      <point x="114" y="518" type="line"/>
      <point x="84" y="475"/>
      <point x="66" y="422"/>
      <point x="66" y="364" type="curve" smooth="yes"/>
      <point x="66" y="306"/>
      <point x="84" y="253"/>
      <point x="115" y="210" type="curve"/>
      <point x="20" y="114" type="line"/>
    </contour>
    <contour>
      <point x="343" y="230" type="curve" smooth="yes"/>
      <point x="270" y="230"/>
      <point x="214" y="289"/>
      <point x="214" y="364" type="curve" smooth="yes"/>
      <point x="214" y="440"/>
      <point x="271" y="499"/>
      <point x="343" y="499" type="curve" smooth="yes"/>
      <point x="415" y="499"/>
      <point x="472" y="440"/>
      <point x="472" y="364" type="curve" smooth="yes"/>
      <point x="472" y="289"/>
      <point x="416" y="230"/>
    </contour>
  </outline>
</glyph>
<glyph name="uni00A6" format="2">
  <advance width="338"/>
  <unicode hex="00A6"/>
  <guideline x="172" y="243" angle="90.0" identifier="ClaBlADU7P"/>
  <guideline x="172" y="243" angle="0.0" identifier="gnkGUokBKe"/>
  <outline>
    <contour>
      <point x="248" y="283" type="line"/>
      <point x="337" y="700" type="line"/>
      <point x="188" y="700" type="line"/>
      <point x="99" y="283" type="line"/>
    </contour>
    <contour>
      <point x="-6" y="-214" type="line"/>
      <point x="143" y="-214" type="line"/>
      <point x="231" y="203" type="line"/>
      <point x="82" y="203" type="line"/>
    </contour>
  </outline>
</glyph>
<glyph name="copyright" format="2">
  <advance width="767"/>
  <unicode hex="00A9"/>
  <outline>
    <contour>
      <point x="358" y="-11" type="curve" smooth="yes"/>
      <point x="572" y="-11"/>
      <point x="754" y="177"/>
      <point x="754" y="398" type="curve" smooth="yes"/>
      <point x="754" y="578"/>
      <point x="621" y="713"/>
      <point x="442" y="713" type="curve" smooth="yes"/>
      <point x="228" y="713"/>
      <point x="47" y="525"/>
      <point x="47" y="303" type="curve" smooth="yes"/>
      <point x="47" y="124"/>
      <point x="180" y="-11"/>
    </contour>
    <contour>
      <point x="367" y="63" type="curve" smooth="yes"/>
      <point x="229" y="63"/>
      <point x="127" y="169"/>
      <point x="127" y="313" type="curve" smooth="yes"/>
      <point x="127" y="485"/>
      <point x="272" y="638"/>
      <point x="434" y="638" type="curve" smooth="yes"/>
      <point x="572" y="638"/>
      <point x="674" y="532"/>
      <point x="674" y="389" type="curve" smooth="yes"/>
      <point x="674" y="216"/>
      <point x="529" y="63"/>
    </contour>
    <contour>
      <point x="380" y="159" type="curve" smooth="yes"/>
      <point x="437" y="159.0"/>
      <point x="492.1372043200436" y="181.13034410404143"/>
      <point x="532" y="219" type="curve"/>
      <point x="476" y="304" type="line"/>
      <point x="450" y="280"/>
      <point x="427" y="269"/>
      <point x="402" y="269" type="curve" smooth="yes"/>
      <point x="364" y="269"/>
      <point x="338" y="296"/>
      <point x="338" y="334" type="curve" smooth="yes"/>
      <point x="338" y="387"/>
      <point x="378" y="432"/>
      <point x="425" y="432" type="curve" smooth="yes"/>
      <point x="455" y="432"/>
      <point x="474" y="419"/>
      <point x="496" y="387" type="curve"/>
      <point x="587" y="462.0" type="line"/>
      <point x="554" y="517"/>
      <point x="497" y="545"/>
      <point x="435" y="545" type="curve" smooth="yes"/>
      <point x="316.5288888888889" y="545.0"/>
      <point x="211" y="452"/>
      <point x="211" y="326" type="curve" smooth="yes"/>
      <point x="211" y="230"/>
      <point x="282.0" y="159.0"/>
    </contour>
  </outline>
</glyph>
<glyph name="ordfeminine" format="2">
  <advance width="441"/>
  <unicode hex="00AA"/>
  <outline>
    <contour>
      <point x="198" y="301" type="curve" smooth="yes"/>
      <point x="230" y="301"/>
      <point x="259" y="308"/>
      <point x="289" y="325" type="curve"/>
      <point x="285" y="305" type="line"/>
      <point x="408" y="305" type="line"/>
      <point x="458" y="538" type="line" smooth="yes"/>
      <point x="480" y="645"/>
      <point x="417" y="710"/>
      <point x="289" y="710" type="curve" smooth="yes"/>
      <point x="238" y="710"/>
      <point x="182" y="699"/>
      <point x="121" y="676" type="curve"/>
      <point x="151" y="582" type="line"/>
      <point x="202" y="599"/>
      <point x="234" y="606"/>
      <point x="260" y="606" type="curve" smooth="yes"/>
      <point x="319" y="606"/>
      <point x="344" y="584"/>
      <point x="335" y="538" type="curve" smooth="yes"/>
      <point x="333" y="529" type="line"/>
      <point x="301" y="538"/>
      <point x="266" y="544"/>
      <point x="233" y="544" type="curve" smooth="yes"/>
      <point x="127" y="544"/>
      <point x="63" y="495"/>
      <point x="63" y="412" type="curve" smooth="yes"/>
      <point x="63" y="344"/>
      <point x="115" y="301"/>
    </contour>
    <contour>
      <point x="243" y="388" type="curve" smooth="yes"/>
      <point x="203" y="388"/>
      <point x="181" y="400"/>
      <point x="181" y="422" type="curve" smooth="yes"/>
      <point x="181" y="449"/>
      <point x="204" y="463"/>
      <point x="246" y="463" type="curve" smooth="yes"/>
      <point x="267" y="463"/>
      <point x="293" y="459"/>
      <point x="317" y="452" type="curve"/>
      <point x="306" y="402" type="line"/>
      <point x="286" y="393"/>
      <point x="265" y="388"/>
    </contour>
  </outline>
</glyph>
<glyph name="degree" format="2">
  <advance width="362"/>
  <unicode hex="00B0"/>
  <outline>
    <contour>
      <point x="231" y="416" type="curve" smooth="yes"/>
      <point x="317" y="416"/>
      <point x="391" y="492"/>
      <point x="391" y="580" type="curve" smooth="yes"/>
      <point x="391" y="655"/>
      <point x="335" y="710"/>
      <point x="259" y="710" type="curve" smooth="yes"/>
      <point x="174" y="710"/>
      <point x="100" y="634"/>
      <point x="100" y="546" type="curve" smooth="yes"/>
      <point x="100" y="471"/>
      <point x="155" y="416"/>
    </contour>
    <contour>
      <point x="236" y="499" type="curve" smooth="yes"/>
      <point x="207" y="499"/>
      <point x="184" y="525"/>
      <point x="184" y="556" type="curve" smooth="yes"/>
      <point x="184" y="595"/>
      <point x="216" y="627"/>
      <point x="253" y="627" type="curve" smooth="yes"/>
      <point x="283" y="627"/>
      <point x="307" y="602"/>
      <point x="307" y="570" type="curve" smooth="yes"/>
      <point x="307" y="531"/>
      <point x="275" y="499"/>
    </contour>
  </outline>
</glyph>
<glyph name="paragraph" format="2">
  <advance width="754"/>
  <unicode hex="00B6"/>
  <outline>
    <contour>
      <point x="274" y="0" type="line"/>
      <point x="402" y="0" type="line"/>
      <point x="453" y="238" type="line"/>
      <point x="538" y="238" type="line"/>
      <point x="487" y="0" type="line"/>
      <point x="615" y="0" type="line"/>
      <point x="764" y="700" type="line"/>
      <point x="371" y="700" type="line" smooth="yes"/>
      <point x="208" y="700"/>
      <point x="89" y="589"/>
      <point x="89" y="437" type="curve" smooth="yes"/>
      <point x="89" y="318"/>
      <point x="182" y="238"/>
      <point x="321" y="238" type="curve" smooth="yes"/>
      <point x="325" y="238" type="line"/>
    </contour>
    <contour>
      <point x="479" y="365" type="line"/>
      <point x="523" y="570" type="line"/>
      <point x="608" y="570" type="line"/>
      <point x="565" y="365" type="line"/>
    </contour>
    <contour>
      <point x="328" y="365" type="line" smooth="yes"/>
      <point x="267" y="365"/>
      <point x="228" y="400"/>
      <point x="228" y="456" type="curve" smooth="yes"/>
      <point x="228" y="521"/>
      <point x="280" y="570"/>
      <point x="349" y="570" type="curve" smooth="yes"/>
      <point x="395" y="570" type="line"/>
      <point x="351" y="365" type="line"/>
    </contour>
  </outline>
</glyph>
<glyph name="onesuperior" format="2">
  <advance width="203"/>
  <unicode hex="00B9"/>
  <outline>
    <contour>
      <point x="109" y="350" type="line"/>
      <point x="204" y="350" type="line"/>
      <point x="279" y="700" type="line"/>
      <point x="219" y="700" type="line"/>
      <point x="98" y="655" type="line"/>
      <point x="80" y="572" type="line"/>
      <point x="163" y="602" type="line"/>
    </contour>
  </outline>
</glyph>
<glyph name="AE" format="2">
  <advance width="976"/>
  <unicode hex="00C6"/>
  <outline>
    <contour>
      <point x="-63" y="0" type="line"/>
      <point x="110" y="0" type="line"/>
      <point x="213" y="169" type="line"/>
      <point x="482" y="169" type="line"/>
      <point x="504" y="0" type="line"/>
      <point x="876" y="0" type="line"/>
      <point x="907" y="149" type="line"/>
      <point x="650" y="149" type="line"/>
      <point x="631" y="281" type="line"/>
      <point x="814" y="281" type="line"/>
      <point x="845" y="425" type="line"/>
      <point x="612" y="425" type="line"/>
      <point x="594" y="551" type="line"/>
      <point x="993" y="551" type="line"/>
      <point x="1024" y="700" type="line"/>
      <point x="366" y="700" type="line"/>
    </contour>
    <contour>
      <point x="297" y="306" type="line"/>
      <point x="435" y="530" type="line"/>
      <point x="464" y="306" type="line"/>
    </contour>
  </outline>
</glyph>
<glyph name="Oslash" format="2">
  <advance width="800"/>
  <unicode hex="00D8"/>
  <outline>
    <contour>
      <point x="392" y="-11" type="curve" smooth="yes"/>
      <point x="608" y="-11"/>
      <point x="785" y="165"/>
      <point x="785" y="380" type="curve" smooth="yes"/>
      <point x="785" y="455"/>
      <point x="762" y="522"/>
      <point x="723" y="576" type="curve"/>
      <point x="849" y="700" type="line"/>
      <point x="696" y="700" type="line"/>
      <point x="646" y="651" type="line"/>
      <point x="590" y="689"/>
      <point x="521" y="711"/>
      <point x="444" y="711" type="curve" smooth="yes"/>
      <point x="228" y="711"/>
      <point x="51" y="535"/>
      <point x="51" y="320" type="curve" smooth="yes"/>
      <point x="51" y="246"/>
      <point x="73" y="179"/>
      <point x="112" y="125" type="curve"/>
      <point x="-14" y="0" type="line"/>
      <point x="138" y="0" type="line"/>
      <point x="189" y="50" type="line"/>
      <point x="245" y="11"/>
      <point x="315" y="-11"/>
    </contour>
    <contour>
      <point x="240" y="251" type="line"/>
      <point x="230" y="275"/>
      <point x="224" y="302"/>
      <point x="224" y="331" type="curve" smooth="yes"/>
      <point x="224" y="454"/>
      <point x="317" y="553"/>
      <point x="433" y="553" type="curve" smooth="yes"/>
      <point x="467" y="553"/>
      <point x="497" y="545"/>
      <point x="524" y="530" type="curve"/>
    </contour>
    <contour>
      <point x="403" y="147" type="curve" smooth="yes"/>
      <point x="369" y="147"/>
      <point x="338" y="155"/>
      <point x="311" y="171" type="curve"/>
      <point x="595" y="450" type="line"/>
      <point x="606" y="426"/>
      <point x="612" y="399"/>
      <point x="612" y="369" type="curve" smooth="yes"/>
      <point x="612" y="246"/>
      <point x="519" y="147"/>
    </contour>
  </outline>
</glyph>
<glyph name="Thorn" format="2">
  <advance width="681"/>
  <unicode hex="00DE"/>
  <outline>
    <contour>
      <point x="2" y="0" type="line"/>
      <point x="170" y="0" type="line"/>
      <point x="197" y="126" type="line"/>
      <point x="383" y="126" type="line" smooth="yes"/>
      <point x="528" y="126"/>
      <point x="640" y="234"/>
      <point x="640" y="373" type="curve" smooth="yes"/>
      <point x="640" y="492"/>
      <point x="553" y="575"/>
      <point x="427" y="575" type="curve" smooth="yes"/>
      <point x="292" y="575" type="line"/>
      <point x="319" y="700" type="line"/>
      <point x="151" y="700" type="line"/>
    </contour>
    <contour>
      <point x="227" y="268" type="line"/>
      <point x="261" y="428" type="line"/>
      <point x="395" y="428" type="line" smooth="yes"/>
      <point x="439" y="428"/>
      <point x="468" y="401"/>
      <point x="468" y="359" type="curve" smooth="yes"/>
      <point x="468" y="305"/>
      <point x="431" y="268"/>
      <point x="378" y="268" type="curve" smooth="yes"/>
    </contour>
  </outline>
</glyph>
<glyph name="ccedilla" format="2">
  <advance width="528"/>
  <unicode hex="00E7"/>
  <outline>
    <contour>
      <point x="227" y="-236" type="curve" smooth="yes"/>
      <point x="307" y="-236"/>
      <point x="372" y="-186"/>
      <point x="372" y="-124" type="curve" smooth="yes"/>
      <point x="372" y="-80"/>
      <point x="344" y="-51"/>
      <point x="296" y="-42" type="curve"/>
      <point x="313" y="-9" type="line"/>
      <point x="379" y="-2"/>
      <point x="439" y="27"/>
      <point x="490" y="75" type="curve"/>
      <point x="408" y="180" type="line"/>
      <point x="372" y="145"/>
      <point x="338" y="129"/>
      <point x="297" y="129" type="curve" smooth="yes"/>
      <point x="228" y="129"/>
      <point x="182" y="177"/>
      <point x="182" y="249" type="curve" smooth="yes"/>
      <point x="182" y="331"/>
      <point x="241" y="398"/>
      <point x="314" y="398" type="curve" smooth="yes"/>
      <point x="363" y="398"/>
      <point x="400" y="377"/>
      <point x="430" y="331" type="curve"/>
      <point x="538" y="429" type="line"/>
      <point x="490" y="498"/>
      <point x="408" y="539"/>
      <point x="316" y="539" type="curve" smooth="yes"/>
      <point x="154" y="539"/>
      <point x="24" y="406"/>
      <point x="24" y="240" type="curve" smooth="yes"/>
      <point x="24" y="109"/>
      <point x="113" y="10"/>
      <point x="238" y="-8" type="curve"/>
      <point x="194" y="-95" type="line"/>
      <point x="237" y="-95" type="line" smooth="yes"/>
      <point x="264" y="-95"/>
      <point x="281" y="-108"/>
      <point x="281" y="-128" type="curve" smooth="yes"/>
      <point x="281" y="-149"/>
      <point x="261" y="-163"/>
      <point x="231" y="-163" type="curve" smooth="yes"/>
      <point x="202" y="-163"/>
      <point x="175" y="-152"/>
      <point x="155" y="-131" type="curve"/>
      <point x="98" y="-183" type="line"/>
      <point x="132" y="-220"/>
      <point x="172" y="-236"/>
    </contour>
  </outline>
</glyph>
<glyph name="eth" format="2">
  <advance width="580"/>
  <unicode hex="00F0"/>
  <outline>
    <contour>
      <point x="269" y="-9" type="curve" smooth="yes"/>
      <point x="444" y="-9"/>
      <point x="576" y="152"/>
      <point x="576" y="366" type="curve" smooth="yes"/>
      <point x="576" y="462"/>
      <point x="553" y="547"/>
      <point x="509" y="620" type="curve"/>
      <point x="593" y="661" type="line"/>
      <point x="551" y="748" type="line"/>
      <point x="449" y="698" type="line"/>
      <point x="422" y="726"/>
      <point x="392" y="751"/>
      <point x="357" y="774" type="curve"/>
      <point x="252" y="677" type="line"/>
      <point x="274" y="663"/>
      <point x="294" y="649"/>
      <point x="313" y="631" type="curve"/>
      <point x="247" y="598" type="line"/>
      <point x="287" y="512" type="line"/>
      <point x="377" y="556" type="line"/>
      <point x="403" y="518"/>
      <point x="419" y="478"/>
      <point x="423" y="441" type="curve"/>
      <point x="390" y="470"/>
      <point x="346" y="484"/>
      <point x="291" y="484" type="curve" smooth="yes"/>
      <point x="147" y="484"/>
      <point x="27" y="367"/>
      <point x="27" y="227" type="curve" smooth="yes"/>
      <point x="27" y="87"/>
      <point x="126" y="-9"/>
    </contour>
    <contour>
      <point x="274" y="133" type="curve" smooth="yes"/>
      <point x="219" y="133"/>
      <point x="177" y="175"/>
      <point x="177" y="231" type="curve" smooth="yes"/>
      <point x="177" y="295"/>
      <point x="232" y="350"/>
      <point x="297" y="350" type="curve" smooth="yes"/>
      <point x="351" y="350"/>
      <point x="392" y="308"/>
      <point x="392" y="253" type="curve" smooth="yes"/>
      <point x="392" y="189"/>
      <point x="337" y="133"/>
    </contour>
  </outline>
</glyph>
<glyph name="oslash" format="2">
  <advance width="618"/>
  <unicode hex="00F8"/>
  <outline>
    <contour>
      <point x="292" y="-10" type="curve" smooth="yes"/>
      <point x="455" y="-10"/>
      <point x="591" y="124"/>
      <point x="591" y="284" type="curve" smooth="yes"/>
      <point x="591" y="343"/>
      <point x="572" y="397"/>
      <point x="539" y="439" type="curve"/>
      <point x="629" y="529" type="line"/>
      <point x="516" y="529" type="line"/>
      <point x="481" y="494" type="line"/>
      <point x="438" y="522"/>
      <point x="385" y="539"/>
      <point x="326" y="539" type="curve" smooth="yes"/>
      <point x="162" y="539"/>
      <point x="26" y="406"/>
      <point x="26" y="245" type="curve" smooth="yes"/>
      <point x="26" y="186"/>
      <point x="45" y="132"/>
      <point x="78" y="90" type="curve"/>
      <point x="-12" y="0" type="line"/>
      <point x="100" y="0" type="line"/>
      <point x="136" y="36" type="line"/>
      <point x="179" y="7"/>
      <point x="233" y="-10"/>
    </contour>
    <contour>
      <point x="191" y="203" type="line"/>
      <point x="185" y="218"/>
      <point x="182" y="234"/>
      <point x="182" y="252" type="curve" smooth="yes"/>
      <point x="182" y="333"/>
      <point x="243" y="399"/>
      <point x="318" y="399" type="curve" smooth="yes"/>
      <point x="338" y="399"/>
      <point x="357" y="394"/>
      <point x="373" y="386" type="curve"/>
    </contour>
    <contour>
      <point x="299" y="130" type="curve" smooth="yes"/>
      <point x="278" y="130"/>
      <point x="260" y="135"/>
      <point x="243" y="143" type="curve"/>
      <point x="426" y="326" type="line"/>
      <point x="432" y="311"/>
      <point x="435" y="295"/>
      <point x="435" y="277" type="curve" smooth="yes"/>
      <point x="435" y="196"/>
      <point x="374" y="130"/>
    </contour>
  </outline>
</glyph>
<glyph name="thorn" format="2">
  <advance width="635"/>
  <unicode hex="00FE"/>
  <outline>
    <contour>
      <point x="-52" y="-211" type="line"/>
      <point x="107" y="-211" type="line"/>
      <point x="161" y="45" type="line"/>
      <point x="202" y="11"/>
      <point x="254" y="-7"/>
      <point x="313" y="-7" type="curve" smooth="yes"/>
      <point x="477" y="-7"/>
      <point x="609" y="125"/>
      <point x="609" y="290" type="curve" smooth="yes"/>
      <point x="609" y="429"/>
      <point x="506" y="536"/>
      <point x="373" y="536" type="curve" smooth="yes"/>
      <point x="333" y="536"/>
      <point x="295" y="526"/>
      <point x="260" y="508" type="curve"/>
      <point x="308" y="735" type="line"/>
      <point x="142" y="700" type="line"/>
    </contour>
    <contour>
      <point x="329" y="399" type="curve" smooth="yes"/>
      <point x="401" y="399"/>
      <point x="454" y="346"/>
      <point x="454" y="276" type="curve" smooth="yes"/>
      <point x="454" y="195"/>
      <point x="390" y="131"/>
      <point x="307" y="131" type="curve" smooth="yes"/>
      <point x="259" y="131"/>
      <point x="216" y="150"/>
      <point x="190" y="182" type="curve"/>
      <point x="229" y="365" type="line"/>
      <point x="258" y="388"/>
      <point x="291" y="399"/>
    </contour>
  </outline>
</glyph>
<glyph name="aogonek" format="2">
  <advance width="561"/>
  <unicode hex="0105"/>
  <outline>
    <contour>
      <point x="348" y="-221" type="curve" smooth="yes"/>
      <point x="379" y="-221"/>
      <point x="412" y="-213"/>
      <point x="438" y="-198" type="curve"/>
      <point x="432" y="-128" type="line"/>
      <point x="421" y="-135"/>
      <point x="407" y="-139"/>
      <point x="394" y="-139" type="curve" smooth="yes"/>
      <point x="370" y="-139"/>
      <point x="356" y="-128"/>
      <point x="356" y="-108" type="curve" smooth="yes"/>
      <point x="356" y="-72"/>
      <point x="390" y="-37"/>
      <point x="460" y="0" type="curve"/>
      <point x="526" y="312" type="line" smooth="yes"/>
      <point x="555" y="453"/>
      <point x="472" y="538"/>
      <point x="304" y="538" type="curve" smooth="yes"/>
      <point x="238" y="538"/>
      <point x="165" y="523"/>
      <point x="84" y="493" type="curve"/>
      <point x="122" y="373" type="line"/>
      <point x="188" y="395"/>
      <point x="232" y="405"/>
      <point x="268" y="405" type="curve" smooth="yes"/>
      <point x="348" y="405"/>
      <point x="382" y="374"/>
      <point x="369" y="311" type="curve" smooth="yes"/>
      <point x="366" y="296" type="line"/>
      <point x="323" y="309"/>
      <point x="276" y="317"/>
      <point x="231" y="317" type="curve" smooth="yes"/>
      <point x="90" y="317"/>
      <point x="6" y="251"/>
      <point x="6" y="142" type="curve" smooth="yes"/>
      <point x="6" y="52"/>
      <point x="75" y="-5"/>
      <point x="185" y="-5" type="curve" smooth="yes"/>
      <point x="229" y="-5"/>
      <point x="268" y="5"/>
      <point x="309" y="29" type="curve"/>
      <point x="303" y="0" type="line"/>
      <point x="375" y="0" type="line"/>
      <point x="298" y="-44"/>
      <point x="260" y="-93"/>
      <point x="260" y="-148" type="curve" smooth="yes"/>
      <point x="260" y="-193"/>
      <point x="294" y="-221"/>
    </contour>
    <contour>
      <point x="242" y="107" type="curve" smooth="yes"/>
      <point x="188" y="107"/>
      <point x="156" y="125"/>
      <point x="156" y="155" type="curve" smooth="yes"/>
      <point x="156" y="192"/>
      <point x="188" y="213"/>
      <point x="246" y="213" type="curve" smooth="yes"/>
      <point x="278" y="213"/>
      <point x="314" y="207"/>
      <point x="345" y="197" type="curve"/>
      <point x="330" y="128" type="line"/>
      <point x="303" y="114"/>
      <point x="274" y="107"/>
    </contour>
  </outline>
</glyph>
<glyph name="Eogonek" format="2">
  <advance width="646"/>
  <unicode hex="0118"/>
  <outline>
    <contour>
      <point x="434" y="-221" type="curve" smooth="yes"/>
      <point x="465" y="-221"/>
      <point x="498" y="-213"/>
      <point x="524" y="-198" type="curve"/>
      <point x="518" y="-128" type="line"/>
      <point x="507" y="-135"/>
      <point x="493" y="-139"/>
      <point x="480" y="-139" type="curve" smooth="yes"/>
      <point x="456" y="-139"/>
      <point x="442" y="-128"/>
      <point x="442" y="-108" type="curve" smooth="yes"/>
      <point x="442" y="-72"/>
      <point x="476" y="-37"/>
      <point x="546" y="0" type="curve"/>
      <point x="578" y="149" type="line"/>
      <point x="201" y="149" type="line"/>
      <point x="229" y="281" type="line"/>
      <point x="475" y="281" type="line"/>
      <point x="505" y="425" type="line"/>
      <point x="259" y="425" type="line"/>
      <point x="286" y="551" type="line"/>
      <point x="659" y="551" type="line"/>
      <point x="691" y="700" type="line"/>
      <point x="150" y="700" type="line"/>
      <point x="1" y="0" type="line"/>
      <point x="461" y="0" type="line"/>
      <point x="384" y="-44"/>
      <point x="346" y="-93"/>
      <point x="346" y="-148" type="curve" smooth="yes"/>
      <point x="346" y="-193"/>
      <point x="380" y="-221"/>
    </contour>
  </outline>
</glyph>
<glyph name="gcommaaccent" format="2">
  <advance width="634"/>
  <unicode hex="0123"/>
  <outline>
    <contour>
      <point x="526" y="832" type="line"/>
      <point x="412" y="832" type="line"/>
      <point x="278" y="617" type="line"/>
      <point x="426" y="617" type="line"/>
    </contour>
    <component base="g"/>
  </outline>
</glyph>
<glyph name="hbar" format="2">
  <advance width="598"/>
  <unicode hex="0127"/>
  <outline>
    <contour>
      <point x="-7" y="0" type="line"/>
      <point x="152" y="0" type="line"/>
      <point x="229" y="361" type="line"/>
      <point x="256" y="387"/>
      <point x="287" y="400"/>
      <point x="324" y="400" type="curve" smooth="yes"/>
      <point x="383" y="400"/>
      <point x="415" y="360"/>
      <point x="403" y="300" type="curve" smooth="yes"/>
      <point x="339" y="0" type="line"/>
      <point x="498" y="0" type="line"/>
      <point x="565" y="315" type="line" smooth="yes"/>
      <point x="592" y="443"/>
      <point x="521" y="537"/>
      <point x="395" y="537" type="curve" smooth="yes"/>
      <point x="346" y="537"/>
      <point x="299" y="523"/>
      <point x="257" y="496" type="curve"/>
      <point x="274" y="576" type="line"/>
      <point x="400" y="576" type="line"/>
      <point x="420" y="671" type="line"/>
      <point x="294" y="671" type="line"/>
      <point x="308" y="735" type="line"/>
      <point x="142" y="700" type="line"/>
      <point x="136" y="671" type="line"/>
      <point x="82" y="671" type="line"/>
      <point x="62" y="576" type="line"/>
      <point x="116" y="576" type="line"/>
    </contour>
  </outline>
</glyph>
<glyph name="iogonek" format="2">
  <advance width="257"/>
  <unicode hex="012F"/>
  <outline>
    <contour>
      <point x="204" y="578" type="curve" smooth="yes"/>
      <point x="256" y="578"/>
      <point x="302" y="624"/>
      <point x="302" y="678" type="curve" smooth="yes"/>
      <point x="302" y="722"/>
      <point x="268" y="756"/>
      <point x="224" y="756" type="curve" smooth="yes"/>
      <point x="172" y="756"/>
      <point x="126" y="710"/>
      <point x="126" y="656" type="curve" smooth="yes"/>
      <point x="126" y="612"/>
      <point x="160" y="578"/>
    </contour>
    <contour>
      <point x="40" y="-221" type="curve" smooth="yes"/>
      <point x="71" y="-221"/>
      <point x="104" y="-213"/>
      <point x="130" y="-198" type="curve"/>
      <point x="124" y="-128" type="line"/>
      <point x="113" y="-135"/>
      <point x="99" y="-139"/>
      <point x="86" y="-139" type="curve" smooth="yes"/>
      <point x="62" y="-139"/>
      <point x="48" y="-128"/>
      <point x="48" y="-108" type="curve" smooth="yes"/>
      <point x="48" y="-72"/>
      <point x="82" y="-37"/>
      <point x="152" y="0" type="curve"/>
      <point x="264" y="529" type="line"/>
      <point x="105" y="529" type="line"/>
      <point x="-7" y="0" type="line"/>
      <point x="67" y="0" type="line"/>
      <point x="-10" y="-44"/>
      <point x="-48" y="-93"/>
      <point x="-48" y="-148" type="curve" smooth="yes"/>
      <point x="-48" y="-193"/>
      <point x="-14" y="-221"/>
    </contour>
  </outline>
</glyph>
<glyph name="kgreenlandic" format="2">
  <advance width="585"/>
  <unicode hex="0138"/>
  <outline>
    <contour>
      <point x="-7" y="0" type="line"/>
      <point x="152" y="0" type="line"/>
      <point x="200" y="227" type="line"/>
      <point x="361" y="0" type="line"/>
      <point x="552" y="0" type="line"/>
      <point x="353" y="263" type="line"/>
      <point x="649" y="529" type="line"/>
      <point x="456" y="529" type="line"/>
      <point x="216" y="303" type="line"/>
      <point x="264" y="529" type="line"/>
      <point x="106" y="529" type="line"/>
    </contour>
  </outline>
</glyph>
<glyph name="Lslash" format="2">
  <advance width="656"/>
  <unicode hex="0141"/>
  <outline>
    <contour>
      <point x="31" y="0" type="line"/>
      <point x="561" y="0" type="line"/>
      <point x="593" y="152" type="line"/>
      <point x="231" y="152" type="line"/>
      <point x="263" y="299" type="line"/>
      <point x="457" y="401" type="line"/>
      <point x="487" y="543" type="line"/>
      <point x="293" y="441" type="line"/>
      <point x="348" y="700" type="line"/>
      <point x="180" y="700" type="line"/>
      <point x="104" y="341" type="line"/>
      <point x="18" y="296" type="line"/>
      <point x="-12" y="154" type="line"/>
      <point x="73" y="199" type="line"/>
    </contour>
  </outline>
</glyph>
<glyph name="eng" format="2">
  <advance width="598"/>
  <unicode hex="014B"/>
  <outline>
    <contour>
      <point x="287" y="-218" type="curve" smooth="yes"/>
      <point x="392" y="-218"/>
      <point x="464" y="-161"/>
      <point x="485" y="-61" type="curve" smooth="yes"/>
      <point x="565" y="315" type="line" smooth="yes"/>
      <point x="592" y="443"/>
      <point x="521" y="537"/>
      <point x="395" y="537" type="curve" smooth="yes"/>
      <point x="345" y="537"/>
      <point x="299" y="523"/>
      <point x="257" y="496" type="curve"/>
      <point x="264" y="529" type="line"/>
      <point x="105" y="529" type="line"/>
      <point x="-7" y="0" type="line"/>
      <point x="152" y="0" type="line"/>
      <point x="228" y="361" type="line"/>
      <point x="255" y="387"/>
      <point x="287" y="400"/>
      <point x="324" y="400" type="curve" smooth="yes"/>
      <point x="383" y="400"/>
      <point x="415" y="360"/>
      <point x="403" y="300" type="curve" smooth="yes"/>
      <point x="329" y="-44" type="line" smooth="yes"/>
      <point x="322" y="-74"/>
      <point x="305" y="-88"/>
      <point x="274" y="-88" type="curve" smooth="yes"/>
      <point x="250" y="-88"/>
      <point x="236" y="-86"/>
      <point x="220" y="-82" type="curve"/>
      <point x="194" y="-203" type="line"/>
      <point x="214" y="-211"/>
      <point x="257" y="-218"/>
    </contour>
  </outline>
</glyph>
<glyph name="Tcedilla" format="2">
  <advance width="653"/>
  <unicode hex="0162"/>
  <outline>
    <contour>
      <point x="214" y="-238" type="curve" smooth="yes"/>
      <point x="294" y="-238"/>
      <point x="359" y="-188"/>
      <point x="359" y="-126" type="curve" smooth="yes"/>
      <point x="359" y="-82"/>
      <point x="331" y="-53"/>
      <point x="283" y="-44" type="curve"/>
      <point x="306" y="0" type="line"/>
      <point x="355" y="0" type="line"/>
      <point x="472" y="548" type="line"/>
      <point x="695" y="548" type="line"/>
      <point x="728" y="700" type="line"/>
      <point x="111" y="700" type="line"/>
      <point x="78" y="548" type="line"/>
      <point x="303" y="548" type="line"/>
      <point x="186" y="0" type="line"/>
      <point x="230" y="0" type="line"/>
      <point x="181" y="-97" type="line"/>
      <point x="224" y="-97" type="line" smooth="yes"/>
      <point x="251" y="-97"/>
      <point x="268" y="-110"/>
      <point x="268" y="-130" type="curve" smooth="yes"/>
      <point x="268" y="-151"/>
      <point x="248" y="-165"/>
      <point x="218" y="-165" type="curve" smooth="yes"/>
      <point x="189" y="-165"/>
      <point x="162" y="-154"/>
      <point x="142" y="-133" type="curve"/>
      <point x="85" y="-185" type="line"/>
      <point x="119" y="-222"/>
      <point x="159" y="-238"/>
    </contour>
  </outline>
</glyph>
<glyph name="tcaron" format="2">
  <advance width="448"/>
  <unicode hex="0165"/>
  <outline>
    <contour>
      <point x="263" y="-6" type="curve" smooth="yes"/>
      <point x="296" y="-6"/>
      <point x="341" y="-1"/>
      <point x="366" y="5" type="curve"/>
      <point x="394" y="135" type="line"/>
      <point x="370" y="129"/>
      <point x="351" y="127"/>
      <point x="328" y="127" type="curve" smooth="yes"/>
      <point x="274" y="127"/>
      <point x="256" y="147"/>
      <point x="266" y="195" type="curve" smooth="yes"/>
      <point x="309" y="394" type="line"/>
      <point x="454" y="394" type="line"/>
      <point x="482" y="529" type="line"/>
      <point x="337" y="529" type="line"/>
      <point x="374" y="700" type="line"/>
      <point x="208" y="665" type="line"/>
      <point x="179" y="529" type="line"/>
      <point x="74" y="529" type="line"/>
      <point x="46" y="394" type="line"/>
      <point x="151" y="394" type="line"/>
      <point x="103" y="170" type="line" smooth="yes"/>
      <point x="79" y="57"/>
      <point x="136" y="-6"/>
    </contour>
    <contour>
      <point x="410" y="591" type="line"/>
      <point x="499" y="591" type="line"/>
      <point x="599" y="820" type="line"/>
      <point x="464" y="795" type="line"/>
    </contour>
  </outline>
</glyph>
<glyph name="Uogonek" format="2">
  <advance width="718"/>
  <unicode hex="0172"/>
  <outline>
    <contour>
      <point x="307" y="-221" type="curve" smooth="yes"/>
      <point x="338" y="-221"/>
      <point x="371" y="-213"/>
      <point x="397" y="-198" type="curve"/>
      <point x="391" y="-128" type="line"/>
      <point x="380" y="-135"/>
      <point x="366" y="-139"/>
      <point x="353" y="-139" type="curve" smooth="yes"/>
      <point x="329" y="-139"/>
      <point x="315" y="-128"/>
      <point x="315" y="-108" type="curve" smooth="yes"/>
      <point x="315" y="-64"/>
      <point x="366" y="-28"/>
      <point x="419" y="0" type="curve"/>
      <point x="549" y="29"/>
      <point x="641" y="127"/>
      <point x="673" y="273" type="curve" smooth="yes"/>
      <point x="764" y="700" type="line"/>
      <point x="596" y="700" type="line"/>
      <point x="509" y="290" type="line" smooth="yes"/>
      <point x="492" y="206"/>
      <point x="426" y="149"/>
      <point x="346" y="149" type="curve" smooth="yes"/>
      <point x="253" y="149"/>
      <point x="206" y="216"/>
      <point x="228" y="320" type="curve" smooth="yes"/>
      <point x="309" y="700" type="line"/>
      <point x="140" y="700" type="line"/>
      <point x="63" y="338" type="line" smooth="yes"/>
      <point x="20" y="136"/>
      <point x="123" y="-2"/>
      <point x="320" y="-9" type="curve"/>
      <point x="253" y="-51"/>
      <point x="219" y="-97"/>
      <point x="219" y="-148" type="curve" smooth="yes"/>
      <point x="219" y="-193"/>
      <point x="253" y="-221"/>
    </contour>
  </outline>
</glyph>
<glyph name="uogonek" format="2">
  <advance width="599"/>
  <unicode hex="0173"/>
  <outline>
    <contour>
      <point x="382" y="-221" type="curve" smooth="yes"/>
      <point x="413" y="-221"/>
      <point x="446" y="-213"/>
      <point x="472" y="-198" type="curve"/>
      <point x="466" y="-128" type="line"/>
      <point x="455" y="-135"/>
      <point x="441" y="-139"/>
      <point x="428" y="-139" type="curve" smooth="yes"/>
      <point x="404" y="-139"/>
      <point x="390" y="-128"/>
      <point x="390" y="-108" type="curve" smooth="yes"/>
      <point x="390" y="-72"/>
      <point x="424" y="-37"/>
      <point x="494" y="0" type="curve"/>
      <point x="606" y="529" type="line"/>
      <point x="447" y="529" type="line"/>
      <point x="371" y="168" type="line"/>
      <point x="344" y="142"/>
      <point x="312" y="129"/>
      <point x="275" y="129" type="curve" smooth="yes"/>
      <point x="216" y="129"/>
      <point x="184" y="169"/>
      <point x="196" y="229" type="curve" smooth="yes"/>
      <point x="260" y="529" type="line"/>
      <point x="101" y="529" type="line"/>
      <point x="34" y="214" type="line" smooth="yes"/>
      <point x="7" y="86"/>
      <point x="78" y="-8"/>
      <point x="204" y="-8" type="curve" smooth="yes"/>
      <point x="254" y="-8"/>
      <point x="300" y="6"/>
      <point x="342" y="33" type="curve"/>
      <point x="335" y="0" type="line"/>
      <point x="409" y="0" type="line"/>
      <point x="332" y="-44"/>
      <point x="294" y="-93"/>
      <point x="294" y="-148" type="curve" smooth="yes"/>
      <point x="294" y="-193"/>
      <point x="328" y="-221"/>
    </contour>
  </outline>
</glyph>
<glyph name="dotlessj" format="2">
  <advance width="257"/>
  <unicode hex="0237"/>
  <anchor x="185" y="529" name="top"/>
  <outline>
    <contour>
      <point x="-59" y="-218" type="curve" smooth="yes"/>
      <point x="46" y="-218"/>
      <point x="117" y="-162"/>
      <point x="139" y="-61" type="curve" smooth="yes"/>
      <point x="265" y="529" type="line"/>
      <point x="105" y="529" type="line"/>
      <point x="-17" y="-44" type="line" smooth="yes"/>
      <point x="-23" y="-74"/>
      <point x="-41" y="-88"/>
      <point x="-72" y="-88" type="curve" smooth="yes"/>
      <point x="-96" y="-88"/>
      <point x="-110" y="-86"/>
      <point x="-126" y="-82" type="curve"/>
      <point x="-152" y="-203" type="line"/>
      <point x="-132" y="-211"/>
      <point x="-89" y="-218"/>
    </contour>
  </outline>
</glyph>
<glyph name="circumflex" format="2">
  <advance width="600"/>
  <unicode hex="02C6"/>
  <outline>
    <contour>
      <point x="178" y="609" type="line"/>
      <point x="311" y="609" type="line"/>
      <point x="395" y="680" type="line"/>
      <point x="448" y="609" type="line"/>
      <point x="572" y="609" type="line"/>
      <point x="486" y="750" type="line"/>
      <point x="325" y="750" type="line"/>
    </contour>
  </outline>
</glyph>
<glyph name="dotaccent" format="2">
  <advance width="600"/>
  <unicode hex="02D9"/>
  <outline>
    <contour>
      <point x="376" y="602" type="curve" smooth="yes"/>
      <point x="423" y="602"/>
      <point x="465" y="645"/>
      <point x="465" y="694" type="curve" smooth="yes"/>
      <point x="465" y="735"/>
      <point x="435" y="766"/>
      <point x="396" y="766" type="curve" smooth="yes"/>
      <point x="347" y="766"/>
      <point x="305" y="724"/>
      <point x="305" y="674" type="curve" smooth="yes"/>
      <point x="305" y="633"/>
      <point x="335" y="602"/>
    </contour>
  </outline>
</glyph>
<glyph name="ogonek" format="2">
  <advance width="600"/>
  <unicode hex="02DB"/>
  <guideline x="300" y="0" angle="78.0" identifier="mzN8T6YgnN"/>
  <outline>
    <contour>
      <point x="185" y="-221" type="curve" smooth="yes"/>
      <point x="216" y="-221"/>
      <point x="249" y="-213"/>
      <point x="275" y="-198" type="curve"/>
      <point x="269" y="-128" type="line"/>
      <point x="258" y="-135"/>
      <point x="244" y="-139"/>
      <point x="231" y="-139" type="curve" smooth="yes"/>
      <point x="207" y="-139"/>
      <point x="193" y="-128"/>
      <point x="193" y="-108" type="curve" smooth="yes"/>
      <point x="193" y="-72"/>
      <point x="227" y="-37"/>
      <point x="297" y="0" type="curve"/>
      <point x="254" y="22" type="line"/>
      <point x="149" y="-28"/>
      <point x="97" y="-84"/>
      <point x="97" y="-148" type="curve" smooth="yes"/>
      <point x="97" y="-193"/>
      <point x="131" y="-221"/>
    </contour>
  </outline>
</glyph>
<glyph name="quoteleft" format="2">
  <advance width="250"/>
  <unicode hex="2018"/>
  <outline>
    <contour>
      <point x="350" y="750" type="line"/>
      <point x="231" y="750" type="line"/>
      <point x="55" y="466" type="line"/>
      <point x="218" y="466" type="line"/>
    </contour>
  </outline>
</glyph>
<glyph name="quotedblleft" format="2">
  <advance width="462"/>
  <unicode hex="201C"/>
  <outline>
    <contour>
      <point x="348" y="750" type="line"/>
      <point x="229" y="750" type="line"/>
      <point x="53" y="466" type="line"/>
      <point x="216" y="466" type="line"/>
    </contour>
    <contour>
      <point x="562" y="750" type="line"/>
      <point x="443" y="750" type="line"/>
      <point x="267" y="466" type="line"/>
      <point x="430" y="466" type="line"/>
    </contour>
  </outline>
</glyph>
<glyph name="dagger" format="2">
  <advance width="449"/>
  <unicode hex="2020"/>
  <outline>
    <contour>
      <point x="107" y="0" type="line"/>
      <point x="233" y="0" type="line"/>
      <point x="319" y="402" type="line"/>
      <point x="434" y="402" type="line"/>
      <point x="461" y="526" type="line"/>
      <point x="345" y="526" type="line"/>
      <point x="382" y="700" type="line"/>
      <point x="256" y="700" type="line"/>
      <point x="219" y="526" type="line"/>
      <point x="102" y="526" type="line"/>
      <point x="75" y="402" type="line"/>
      <point x="193" y="402" type="line"/>
    </contour>
  </outline>
</glyph>
<glyph name="guilsinglright" format="2">
  <advance width="448"/>
  <unicode hex="203A"/>
  <outline>
    <contour>
      <point x="-26" y="0" type="line"/>
      <point x="137" y="0" type="line"/>
      <point x="434" y="265" type="line"/>
      <point x="249" y="529" type="line"/>
      <point x="88" y="529" type="line"/>
      <point x="267" y="266" type="line"/>
    </contour>
  </outline>
</glyph>
<glyph name="uni2079" format="2">
  <advance width="337"/>
  <unicode hex="2079"/>
  <outline>
    <contour>
      <point x="234" y="705" type="curve" smooth="yes"/>
      <point x="154" y="705"/>
      <point x="88" y="647"/>
      <point x="88" y="576" type="curve" smooth="yes"/>
      <point x="88" y="522"/>
      <point x="131" y="484"/>
      <point x="191" y="484" type="curve" smooth="yes"/>
      <point x="223" y="484"/>
      <point x="254" y="495"/>
      <point x="277" y="514" type="curve"/>
      <point x="264" y="463"/>
      <point x="228" y="427"/>
      <point x="187" y="427" type="curve" smooth="yes"/>
      <point x="155" y="427"/>
      <point x="135" y="436"/>
      <point x="118" y="457" type="curve"/>
      <point x="53" y="395" type="line"/>
      <point x="80" y="363"/>
      <point x="123" y="344"/>
      <point x="171" y="344" type="curve" smooth="yes"/>
      <point x="284" y="344"/>
      <point x="377" y="441"/>
      <point x="377" y="559" type="curve" smooth="yes"/>
      <point x="377" y="649"/>
      <point x="322" y="705"/>
    </contour>
    <contour>
      <point x="228" y="623" type="curve" smooth="yes"/>
      <point x="256" y="623"/>
      <point x="275" y="607"/>
      <point x="281" y="580" type="curve"/>
      <point x="262" y="565"/>
      <point x="242" y="557"/>
      <point x="220" y="557" type="curve" smooth="yes"/>
      <point x="197" y="557"/>
      <point x="181" y="570"/>
      <point x="181" y="588" type="curve" smooth="yes"/>
      <point x="181" y="608"/>
      <point x="201" y="623"/>
    </contour>
  </outline>
</glyph>
<glyph name="uni2080" format="2">
  <advance width="360"/>
  <unicode hex="2080"/>
  <outline>
    <contour>
      <point x="136" y="-5" type="curve" smooth="yes"/>
      <point x="243" y="-5"/>
      <point x="327" y="92"/>
      <point x="327" y="214" type="curve" smooth="yes"/>
      <point x="327" y="301"/>
      <point x="272" y="356"/>
      <point x="186" y="356" type="curve" smooth="yes"/>
      <point x="80" y="356"/>
      <point x="-4" y="259"/>
      <point x="-4" y="137" type="curve" smooth="yes"/>
      <point x="-4" y="50"/>
      <point x="50" y="-5"/>
    </contour>
    <contour>
      <point x="145" y="79" type="curve" smooth="yes"/>
      <point x="110" y="79"/>
      <point x="90" y="103"/>
      <point x="90" y="145" type="curve" smooth="yes"/>
      <point x="90" y="215"/>
      <point x="129" y="272"/>
      <point x="177" y="272" type="curve" smooth="yes"/>
      <point x="212" y="272"/>
      <point x="233" y="247"/>
      <point x="233" y="206" type="curve" smooth="yes"/>
      <point x="233" y="136"/>
      <point x="194" y="79"/>
    </contour>
  </outline>
</glyph>
<glyph name="uni2081" format="2">
  <advance width="203"/>
  <unicode hex="2081"/>
  <outline>
    <contour>
      <point x="35" y="0" type="line"/>
      <point x="130" y="0" type="line"/>
      <point x="205" y="350" type="line"/>
      <point x="145" y="350" type="line"/>
      <point x="24" y="305" type="line"/>
      <point x="6" y="222" type="line"/>
      <point x="89" y="252" type="line"/>
    </contour>
  </outline>
</glyph>
<glyph name="uni2082" format="2">
  <advance width="307"/>
  <unicode hex="2082"/>
  <outline>
    <contour>
      <point x="-29" y="0" type="line"/>
      <point x="234" y="0" type="line"/>
      <point x="251" y="80" type="line"/>
      <point x="132" y="80" type="line"/>
      <point x="204" y="131" type="line" smooth="yes"/>
      <point x="258" y="170"/>
      <point x="284" y="210"/>
      <point x="284" y="256" type="curve" smooth="yes"/>
      <point x="284" y="315"/>
      <point x="232" y="355"/>
      <point x="156" y="355" type="curve" smooth="yes"/>
      <point x="109" y="355"/>
      <point x="58" y="337"/>
      <point x="14" y="303" type="curve"/>
      <point x="52" y="235" type="line"/>
      <point x="87" y="261"/>
      <point x="114" y="272"/>
      <point x="139" y="272" type="curve" smooth="yes"/>
      <point x="170" y="272"/>
      <point x="188" y="259"/>
      <point x="188" y="238" type="curve" smooth="yes"/>
      <point x="188" y="219"/>
      <point x="173" y="199"/>
      <point x="143" y="179" type="curve" smooth="yes"/>
      <point x="-15" y="67" type="line"/>
    </contour>
  </outline>
</glyph>
<glyph name="uni2084" format="2">
  <advance width="360"/>
  <unicode hex="2084"/>
  <outline>
    <contour>
      <point x="157" y="0" type="line"/>
      <point x="253" y="0" type="line"/>
      <point x="268" y="72" type="line"/>
      <point x="311" y="72" type="line"/>
      <point x="328" y="152" type="line"/>
      <point x="285" y="152" type="line"/>
      <point x="327" y="350" type="line"/>
      <point x="214" y="350" type="line"/>
      <point x="-3" y="151" type="line"/>
      <point x="-20" y="72" type="line"/>
      <point x="172" y="72" type="line"/>
    </contour>
    <contour>
      <point x="104" y="152" type="line"/>
      <point x="210" y="250" type="line"/>
      <point x="190" y="152" type="line"/>
    </contour>
  </outline>
</glyph>
<glyph name="uni2086" format="2">
  <advance width="337"/>
  <unicode hex="2086"/>
  <outline>
    <contour>
      <point x="140" y="-6" type="curve" smooth="yes"/>
      <point x="220" y="-6"/>
      <point x="286" y="52"/>
      <point x="286" y="123" type="curve" smooth="yes"/>
      <point x="286" y="177"/>
      <point x="243" y="215"/>
      <point x="183" y="215" type="curve" smooth="yes"/>
      <point x="151" y="215"/>
      <point x="120" y="204"/>
      <point x="97" y="185" type="curve"/>
      <point x="110" y="236"/>
      <point x="146" y="272"/>
      <point x="187" y="272" type="curve" smooth="yes"/>
      <point x="219" y="272"/>
      <point x="239" y="263"/>
      <point x="256" y="242" type="curve"/>
      <point x="321" y="304" type="line"/>
      <point x="294" y="336"/>
      <point x="251" y="355"/>
      <point x="203" y="355" type="curve" smooth="yes"/>
      <point x="90" y="355"/>
      <point x="-3" y="258"/>
      <point x="-3" y="140" type="curve" smooth="yes"/>
      <point x="-3" y="50"/>
      <point x="52" y="-6"/>
    </contour>
    <contour>
      <point x="146" y="76" type="curve" smooth="yes"/>
      <point x="118" y="76"/>
      <point x="99" y="92"/>
      <point x="93" y="119" type="curve"/>
      <point x="112" y="134"/>
      <point x="132" y="142"/>
      <point x="154" y="142" type="curve" smooth="yes"/>
      <point x="177" y="142"/>
      <point x="193" y="129"/>
      <point x="193" y="111" type="curve" smooth="yes"/>
      <point x="193" y="91"/>
      <point x="173" y="76"/>
    </contour>
  </outline>
</glyph>
<glyph name="uni2087" format="2">
  <advance width="323"/>
  <unicode hex="2087"/>
  <outline>
    <contour>
      <point x="3" y="0" type="line"/>
      <point x="124" y="0" type="line"/>
      <point x="314" y="279" type="line"/>
      <point x="329" y="350" type="line"/>
      <point x="38" y="350" type="line"/>
      <point x="20" y="266" type="line"/>
      <point x="198" y="266" type="line"/>
    </contour>
  </outline>
</glyph>
<glyph name="uni2088" format="2">
  <advance width="334"/>
  <unicode hex="2088"/>
  <outline>
    <contour>
      <point x="124" y="-6" type="curve" smooth="yes"/>
      <point x="209" y="-6"/>
      <point x="277" y="45"/>
      <point x="277" y="109" type="curve" smooth="yes"/>
      <point x="277" y="135"/>
      <point x="265" y="157"/>
      <point x="244" y="171" type="curve"/>
      <point x="277" y="191"/>
      <point x="301" y="224"/>
      <point x="301" y="261" type="curve" smooth="yes"/>
      <point x="301" y="316"/>
      <point x="249" y="355"/>
      <point x="175" y="355" type="curve" smooth="yes"/>
      <point x="94" y="355"/>
      <point x="27" y="303"/>
      <point x="27" y="239" type="curve" smooth="yes"/>
      <point x="27" y="217"/>
      <point x="36" y="197"/>
      <point x="52" y="182" type="curve"/>
      <point x="13" y="165"/>
      <point x="-14" y="129"/>
      <point x="-14" y="89" type="curve" smooth="yes"/>
      <point x="-14" y="32"/>
      <point x="41" y="-6"/>
    </contour>
    <contour>
      <point x="160" y="210" type="curve" smooth="yes"/>
      <point x="137" y="210"/>
      <point x="120" y="222"/>
      <point x="120" y="239" type="curve" smooth="yes"/>
      <point x="120" y="259"/>
      <point x="141" y="276"/>
      <point x="166" y="276" type="curve" smooth="yes"/>
      <point x="189" y="276"/>
      <point x="205" y="264"/>
      <point x="205" y="247" type="curve" smooth="yes"/>
      <point x="205" y="228"/>
      <point x="183" y="210"/>
    </contour>
    <contour>
      <point x="131" y="74" type="curve" smooth="yes"/>
      <point x="102" y="74"/>
      <point x="84" y="86"/>
      <point x="84" y="104" type="curve" smooth="yes"/>
      <point x="84" y="124"/>
      <point x="107" y="140"/>
      <point x="135" y="140" type="curve" smooth="yes"/>
      <point x="163" y="140"/>
      <point x="182" y="128"/>
      <point x="182" y="109" type="curve" smooth="yes"/>
      <point x="182" y="89"/>
      <point x="161" y="74"/>
    </contour>
  </outline>
</glyph>
<glyph name="uni2089" format="2">
  <advance width="337"/>
  <unicode hex="2089"/>
  <outline>
    <contour>
      <point x="160" y="355" type="curve" smooth="yes"/>
      <point x="80" y="355"/>
      <point x="14" y="297"/>
      <point x="14" y="226" type="curve" smooth="yes"/>
      <point x="14" y="172"/>
      <point x="57" y="134"/>
      <point x="117" y="134" type="curve" smooth="yes"/>
      <point x="149" y="134"/>
      <point x="180" y="145"/>
      <point x="203" y="164" type="curve"/>
      <point x="190" y="113"/>
      <point x="154" y="77"/>
      <point x="113" y="77" type="curve" smooth="yes"/>
      <point x="81" y="77"/>
      <point x="61" y="86"/>
      <point x="44" y="107" type="curve"/>
      <point x="-21" y="45" type="line"/>
      <point x="6" y="13"/>
      <point x="49" y="-6"/>
      <point x="97" y="-6" type="curve" smooth="yes"/>
      <point x="210" y="-6"/>
      <point x="303" y="91"/>
      <point x="303" y="209" type="curve" smooth="yes"/>
      <point x="303" y="299"/>
      <point x="248" y="355"/>
    </contour>
    <contour>
      <point x="154" y="273" type="curve" smooth="yes"/>
      <point x="182" y="273"/>
      <point x="201" y="257"/>
      <point x="207" y="230" type="curve"/>
      <point x="188" y="215"/>
      <point x="168" y="207"/>
      <point x="146" y="207" type="curve" smooth="yes"/>
      <point x="123" y="207"/>
      <point x="107" y="220"/>
      <point x="107" y="238" type="curve" smooth="yes"/>
      <point x="107" y="258"/>
      <point x="127" y="273"/>
    </contour>
  </outline>
</glyph>
<glyph name="Euro" format="2">
  <advance width="780"/>
  <unicode hex="20AC"/>
  <outline>
    <contour>
      <point x="431" y="-10" type="curve" smooth="yes"/>
      <point x="542" y="-10"/>
      <point x="640" y="29"/>
      <point x="715" y="104" type="curve"/>
      <point x="626" y="190" type="line"/>
      <point x="584" y="147"/>
      <point x="517" y="121"/>
      <point x="448" y="121" type="curve" smooth="yes"/>
      <point x="353" y="121"/>
      <point x="288" y="167"/>
      <point x="268" y="245" type="curve"/>
      <point x="429" y="245" type="line"/>
      <point x="477" y="323" type="line"/>
      <point x="263" y="323" type="line"/>
      <point x="264" y="341"/>
      <point x="267" y="359"/>
      <point x="271" y="376" type="curve"/>
      <point x="506" y="376" type="line"/>
      <point x="554" y="455" type="line"/>
      <point x="303" y="455" type="line"/>
      <point x="347" y="531"/>
      <point x="424" y="580"/>
      <point x="514" y="580" type="curve" smooth="yes"/>
      <point x="592" y="580"/>
      <point x="659" y="545"/>
      <point x="688" y="489" type="curve"/>
      <point x="808" y="564" type="line"/>
      <point x="763" y="659"/>
      <point x="664" y="711"/>
      <point x="529" y="711" type="curve" smooth="yes"/>
      <point x="353" y="711"/>
      <point x="207" y="608"/>
      <point x="146" y="455" type="curve"/>
      <point x="76" y="455" type="line"/>
      <point x="59" y="376" type="line"/>
      <point x="123" y="376" type="line"/>
      <point x="120" y="359"/>
      <point x="117" y="341"/>
      <point x="116" y="323" type="curve"/>
      <point x="48" y="323" type="line"/>
      <point x="31" y="245" type="line"/>
      <point x="118" y="245" type="line"/>
      <point x="138" y="90"/>
      <point x="257" y="-10"/>
    </contour>
  </outline>
</glyph>
<glyph name="uni2193" format="2">
  <advance width="659"/>
  <unicode hex="2193"/>
  <outline>
    <contour>
      <point x="405" y="700" type="line"/>
      <point x="254" y="700" type="line"/>
      <point x="254" y="228" type="line"/>
      <point x="120" y="391" type="line"/>
      <point x="25" y="306" type="line"/>
      <point x="329" y="-50" type="line"/>
      <point x="634" y="307" type="line"/>
      <point x="541" y="389" type="line"/>
      <point x="405" y="224" type="line"/>
    </contour>
  </outline>
</glyph>
<glyph name="minus" format="2">
  <advance width="600"/>
  <unicode hex="2212"/>
  <outline>
    <contour>
      <point x="86" y="295" type="line"/>
      <point x="536" y="295" type="line"/>
      <point x="562" y="419" type="line"/>
      <point x="112" y="419" type="line"/>
    </contour>
  </outline>
</glyph>
<glyph name="exclamdown.cap" format="2">
  <advance width="261"/>
  <outline>
    <contour>
      <point x="244" y="484" type="line"/>
      <point x="123" y="484" type="line"/>
      <point x="1" y="0" type="line"/>
      <point x="162" y="0" type="line"/>
    </contour>
    <contour>
      <point x="223" y="711" type="curve" smooth="yes"/>
      <point x="169" y="711"/>
      <point x="121" y="662"/>
      <point x="121" y="607" type="curve" smooth="yes"/>
      <point x="121" y="561"/>
      <point x="155" y="526"/>
      <point x="201" y="526" type="curve" smooth="yes"/>
      <point x="257" y="526"/>
      <point x="305" y="574"/>
      <point x="305" y="630" type="curve" smooth="yes"/>
      <point x="305" y="676"/>
      <point x="270" y="711"/>
    </contour>
  </outline>
</glyph>
<glyph name="g.alt" format="2">
  <advance width="615"/>
  <note>
Version created Sun Jan 13 16:53:00 2019
</note>
  <anchor x="331" y="529" name="top"/>
  <outline>
    <contour>
      <point x="239" y="-217" type="curve" smooth="yes"/>
      <point x="421" y="-217"/>
      <point x="542" y="-144"/>
      <point x="542" y="-34" type="curve" smooth="yes"/>
      <point x="542" y="30"/>
      <point x="489" y="72"/>
      <point x="397" y="81" type="curve" smooth="yes"/>
      <point x="231" y="95" type="line" smooth="yes"/>
      <point x="200" y="98"/>
      <point x="184" y="108"/>
      <point x="184" y="123" type="curve" smooth="yes"/>
      <point x="184" y="139"/>
      <point x="197" y="150"/>
      <point x="220" y="154" type="curve"/>
      <point x="243" y="148"/>
      <point x="268" y="145"/>
      <point x="295" y="145" type="curve" smooth="yes"/>
      <point x="438" y="145"/>
      <point x="549" y="237"/>
      <point x="549" y="355" type="curve" smooth="yes"/>
      <point x="549" y="379"/>
      <point x="544" y="402"/>
      <point x="534" y="423" type="curve"/>
      <point x="553" y="428"/>
      <point x="572" y="430"/>
      <point x="592" y="430" type="curve" smooth="yes"/>
      <point x="614" y="430"/>
      <point x="635" y="428"/>
      <point x="645" y="424" type="curve"/>
      <point x="669" y="542" type="line"/>
      <point x="657" y="548"/>
      <point x="644" y="550"/>
      <point x="627" y="550" type="curve" smooth="yes"/>
      <point x="580" y="550"/>
      <point x="535" y="527"/>
      <point x="492" y="480" type="curve"/>
      <point x="451" y="517"/>
      <point x="391" y="539"/>
      <point x="322" y="539" type="curve" smooth="yes"/>
      <point x="181" y="539"/>
      <point x="68" y="443"/>
      <point x="68" y="324" type="curve" smooth="yes"/>
      <point x="68" y="269"/>
      <point x="96" y="221"/>
      <point x="142" y="189" type="curve"/>
      <point x="80" y="170"/>
      <point x="40" y="125"/>
      <point x="40" y="68" type="curve" smooth="yes"/>
      <point x="40" y="48"/>
      <point x="46" y="30"/>
      <point x="59" y="15" type="curve"/>
      <point x="-10" y="0"/>
      <point x="-56" y="-41"/>
      <point x="-56" y="-94" type="curve" smooth="yes"/>
      <point x="-56" y="-170"/>
      <point x="57" y="-217"/>
    </contour>
    <contour>
      <point x="300" y="257" type="curve" smooth="yes"/>
      <point x="250" y="257"/>
      <point x="215" y="288"/>
      <point x="215" y="331" type="curve" smooth="yes"/>
      <point x="215" y="382"/>
      <point x="260" y="422"/>
      <point x="317" y="422" type="curve" smooth="yes"/>
      <point x="365" y="422"/>
      <point x="401" y="390"/>
      <point x="401" y="348" type="curve" smooth="yes"/>
      <point x="401" y="299"/>
      <point x="354" y="257"/>
    </contour>
    <contour>
      <point x="249" y="-120" type="curve" smooth="yes"/>
      <point x="148" y="-120"/>
      <point x="89" y="-102"/>
      <point x="89" y="-70" type="curve" smooth="yes"/>
      <point x="89" y="-50"/>
      <point x="109" y="-34"/>
      <point x="137" y="-29" type="curve"/>
      <point x="157" y="-35"/>
      <point x="180" y="-39"/>
      <point x="205" y="-41" type="curve" smooth="yes"/>
      <point x="346" y="-53" type="line" smooth="yes"/>
      <point x="365" y="-55"/>
      <point x="376" y="-63"/>
      <point x="376" y="-74" type="curve" smooth="yes"/>
      <point x="376" y="-102"/>
      <point x="326" y="-120"/>
    </contour>
  </outline>
</glyph>
<glyph name="gcommaaccent.alt" format="2">
  <advance width="615"/>
  <outline>
    <contour>
      <point x="541" y="832" type="line"/>
      <point x="427" y="832" type="line"/>
      <point x="293" y="617" type="line"/>
      <point x="441" y="617" type="line"/>
    </contour>
    <component base="g.alt"/>
  </outline>
</glyph>
<glyph name="gravecomb" format="2">
  <anchor x="361" y="529" name="_top"/>
  <outline>
    <contour>
      <point x="321" y="611" type="line"/>
      <point x="448" y="611" type="line"/>
      <point x="363" y="747" type="line"/>
      <point x="185" y="747" type="line"/>
    </contour>
  </outline>
</glyph>
<glyph name="questiondown.cap" format="2">
  <advance width="469"/>
  <outline>
    <contour>
      <point x="375" y="481" type="curve"/>
      <point x="242" y="481" type="line"/>
      <point x="233" y="433"/>
      <point x="216" y="411"/>
      <point x="172" y="387" type="curve" smooth="yes"/>
      <point x="144" y="371" type="line" smooth="yes"/>
      <point x="27" y="304"/>
      <point x="-21" y="243"/>
      <point x="-21" y="161" type="curve" smooth="yes"/>
      <point x="-21" y="60"/>
      <point x="71" y="-10"/>
      <point x="203" y="-10" type="curve" smooth="yes"/>
      <point x="314" y="-10"/>
      <point x="418" y="50"/>
      <point x="474" y="146" type="curve"/>
      <point x="357" y="201" type="line"/>
      <point x="329" y="155"/>
      <point x="278" y="125"/>
      <point x="224" y="125" type="curve" smooth="yes"/>
      <point x="171" y="125"/>
      <point x="138" y="148"/>
      <point x="138" y="185" type="curve" smooth="yes"/>
      <point x="138" y="211"/>
      <point x="161" y="239"/>
      <point x="202" y="263" type="curve" smooth="yes"/>
      <point x="263" y="301" type="line" smooth="yes"/>
      <point x="333" y="343"/>
      <point x="360" y="387"/>
    </contour>
    <contour>
      <point x="346" y="711" type="curve" smooth="yes"/>
      <point x="292" y="711"/>
      <point x="244" y="662"/>
      <point x="244" y="607" type="curve" smooth="yes"/>
      <point x="244" y="561"/>
      <point x="278" y="526"/>
      <point x="324" y="526" type="curve" smooth="yes"/>
      <point x="381" y="526"/>
      <point x="428" y="574"/>
      <point x="428" y="630" type="curve" smooth="yes"/>
      <point x="428" y="676"/>
      <point x="393" y="711"/>
    </contour>
  </outline>
</glyph>
<glyph name="uni0304" format="2">
  <anchor x="361" y="529" name="_top"/>
  <outline>
    <contour>
      <point x="219" y="626" type="line"/>
      <point x="541" y="626" type="line"/>
      <point x="563" y="726" type="line"/>
      <point x="241" y="726" type="line"/>
    </contour>
  </outline>
</glyph>
<glyph name="uni030C" format="2">
  <anchor x="361" y="529" name="_top"/>
  <outline>
    <contour>
      <point x="297" y="609" type="line"/>
      <point x="458" y="609" type="line"/>
      <point x="604" y="750" type="line"/>
      <point x="472" y="750" type="line"/>
      <point x="389" y="679" type="line"/>
      <point x="335" y="750" type="line"/>
      <point x="210" y="750" type="line"/>
    </contour>
  </outline>
</glyph>
